# xmcd
#
# Track frame offsets:
# 150
# 13191
# 16718
# 30579
# 49518
# 68562
# 82573
# 99113
# 116266
# 134461
# 151592
# 169200
# 186256
# 198460
#
# Disc length: 2885 seconds
#
#
# Revision: 0
# Processed by: cddbd v1.5.1PL0 Copyright (c) Steve Scherf et al.
# Submitted via: FreeRIP 2.941 
#
DISCID=980b430e
DTITLE=Neal McCoy - That's Life
DYEAR=2005
DGENRE=Country
TTITLE0=Got Mud
TTITLE1=Last Of A Dying Breed (Intro)
TTITLE2=Last Of A Dying Breed
TTITLE3=That's Life
TTITLE4=All Over Again
TTITLE5=Billy's Got His Beer Goggles On
TTITLE6=That's A Picture
TTITLE7=You Let Me Be The Hero
TTITLE8=Tailgate
TTITLE9=Tails I Lose
TTITLE10=Jessie
TTITLE11=You're My Jamaica
TTITLE12=Head South
TTITLE13=Hillbilly Rap
EXTD=
EXTT0=
EXTT1=
EXTT2=
EXTT3=
EXTT4=
EXTT5=
EXTT6=
EXTT7=
EXTT8=
EXTT9=
EXTT10=
EXTT11=
EXTT12=
EXTT13=
PLAYORDER=
